<svg width="529" height="128" viewBox="0 0 529 128" fill="none" xmlns="http://www.w3.org/2000/svg">
<path fill-rule="evenodd" clip-rule="evenodd" d="M218.928 48.9541H208.424C208.826 50.0556 209.128 51.2506 209.335 52.4516C209.537 53.6526 209.637 55.0527 209.637 56.4466C209.637 59.6452 208.933 62.5456 207.619 65.1406C206.305 67.7418 204.388 70.0382 201.968 72.0358C199.541 73.9337 196.618 75.4333 193.286 76.5348C189.854 77.6362 186.22 78.1341 182.078 78.1341L182.084 78.1154C179.154 78.1154 176.432 77.9164 174.006 77.5181C173.402 78.1156 172.893 78.8189 172.491 79.6154C172.089 80.412 171.887 81.3143 171.887 82.4158C171.887 83.6168 172.088 84.6126 172.591 85.4153C173.094 86.1123 173.805 86.7161 174.811 87.1144C175.823 87.5126 177.03 87.811 178.645 87.9168C180.261 88.0226 182.078 88.1159 184.196 88.1159H194.801C202.477 88.1159 208.128 89.4168 211.969 91.9123C215.703 94.5135 217.621 98.7077 217.621 104.508C217.621 108.005 216.709 111.303 214.792 114.203C212.975 117.103 210.448 119.499 207.217 121.603C204.086 123.6 200.352 125.199 196.209 126.301C192.067 127.402 187.729 128 183.184 128H183.083C178.035 128 173.792 127.602 170.259 126.7C166.726 125.797 163.797 124.602 161.477 123.102C159.157 121.603 157.542 119.704 156.429 117.607C155.317 115.51 154.814 113.108 154.814 110.612C154.814 109.013 155.116 107.513 155.725 106.014C156.329 104.613 157.139 103.313 158.145 102.118C159.157 100.917 160.264 99.9215 161.678 99.0192C162.992 98.1168 164.407 97.4197 165.821 96.9219C163.803 95.8204 162.187 94.5257 161.075 92.9264C159.962 91.3271 159.459 89.4291 159.459 87.2324C159.459 84.5316 160.163 82.335 161.578 80.437C162.992 78.6385 164.809 76.9395 167.028 75.5393C163.395 73.94 160.767 71.6436 159.051 68.6442C157.335 65.6446 156.423 62.1469 156.423 58.1517C156.423 54.9532 157.127 52.1529 158.541 49.558C159.956 46.9567 161.974 44.7597 164.4 42.9612C166.927 41.1628 169.75 39.7625 173.082 38.7606C176.413 37.7587 179.946 37.2611 183.687 37.2611H183.788C192.67 37.2611 199.24 38.9596 203.577 42.3574C204.08 41.76 204.79 41.1563 205.595 40.559C206.4 39.9616 207.412 39.3582 208.525 38.8604C209.637 38.3625 210.851 37.958 212.158 37.6593C213.472 37.3606 214.886 37.1613 216.401 37.1613H218.928V48.9541ZM172.994 98.9068C172.29 99.7095 171.579 100.706 170.976 101.907C170.372 103.108 170.064 104.906 170.064 107.003C170.064 109.399 170.366 111.403 170.976 113.003C171.579 114.602 172.592 116.002 173.805 116.997C175.018 117.999 176.634 118.796 178.45 119.195C180.267 119.692 182.386 119.891 184.812 119.891H184.913C187.031 119.891 189.156 119.692 191.275 119.195C193.293 118.697 195.216 117.993 196.825 116.997C198.441 115.996 199.755 114.701 200.66 113.202C201.672 111.702 202.175 109.903 202.175 107.906C202.175 106.406 201.974 105.006 201.672 103.91C201.371 102.809 200.761 101.913 199.856 101.21C198.944 100.513 197.837 100.008 196.322 99.7097C194.807 99.411 192.89 99.2117 190.564 99.2117H179.355V99.2056C179.329 99.2056 174.906 99.2046 172.994 98.9068ZM182.794 44.2308C179.462 44.2309 177.042 45.3323 175.521 47.4294C174.006 49.5266 173.201 52.6258 173.201 56.9259C173.201 59.023 173.402 60.9209 173.704 62.626C174.006 64.3249 174.616 65.8249 175.32 67.1255C176.131 68.3266 177.137 69.3225 178.45 70.0257C179.764 70.7227 181.38 71.127 183.398 71.127V71.121C185.214 71.121 186.73 70.7224 187.943 70.0192C189.156 69.3222 190.061 68.3204 190.772 67.1195C191.476 65.9184 191.884 64.4186 192.186 62.7198C192.488 61.0209 192.588 59.2223 192.588 57.4239C192.588 52.825 191.884 49.4268 190.369 47.3296C188.854 45.2326 186.434 44.2308 182.895 44.2308H182.794Z" fill="#3D7FFC"/>
<path d="M314.362 39.7747L314.369 39.7812H329.4V48.4304H314.369V76.502C314.369 79.1936 314.368 81.3111 314.463 82.941C314.557 84.5771 314.752 85.7261 315.046 86.5005C315.335 87.2686 315.918 87.8494 316.596 88.0368C317.273 88.2241 318.246 88.4239 319.406 88.4239H319.5C320.278 88.4239 321.15 88.3303 322.116 88.2303C322.988 88.1367 323.861 87.9431 324.732 87.7495C325.604 87.5559 326.382 87.3622 327.154 87.1749C327.932 86.9813 328.509 86.7876 328.998 86.6003H329.098L331.52 92.558C330.454 93.3261 329.287 94.0946 327.737 94.8689C326.188 95.6371 324.632 96.3114 322.794 96.9859C320.95 97.6604 319.111 98.1412 317.072 98.5222C315.034 98.9031 313.095 99.0968 311.063 99.0968H310.968C308.735 99.0968 306.797 98.8096 305.247 98.2288C303.698 97.6543 302.337 96.7859 301.371 95.6305C300.404 94.4752 299.72 93.1326 299.237 91.4027C298.754 89.6729 298.56 87.8432 298.56 85.6326V48.3306H291.383V42.56C291.572 42.4975 294.595 42.1789 295.793 41.6981C297.035 41.1298 298.196 40.2306 299.275 38.9879C300.329 37.5328 301.264 35.8343 302.029 33.7671L305.348 24.7742H314.168L314.362 39.7747Z" fill="#3D7FFC"/>
<path fill-rule="evenodd" clip-rule="evenodd" d="M23.4688 44.1976C24.2457 43.4268 25.2229 42.5558 26.3882 41.879C27.4595 41.1082 28.7251 40.4311 29.9906 39.8483C31.3564 39.2718 32.7158 38.783 34.2758 38.4007C35.8357 38.0122 37.4898 37.8241 39.244 37.8241C42.3577 37.8241 45.2834 38.3066 48.0087 39.372C50.7339 40.4373 53.1707 42.0795 55.2131 44.2979C57.2555 46.6166 58.9158 49.5117 60.1814 53.184C61.3529 56.8563 62.0297 61.1994 62.0297 66.5136C62.0297 71.0507 61.3469 75.2057 59.9874 79.1663C58.6216 83.1269 56.5789 86.4107 53.9476 89.3059C51.3164 92.2011 48.1024 94.4257 44.4062 96.0675C40.6096 97.7094 36.4245 98.5806 31.6506 98.5806C28.3428 98.5806 25.323 98.3866 22.4976 98.0983C19.7723 97.81 17.335 97.421 15.2926 96.9385C13.2504 96.456 11.5903 96.0677 10.3249 95.5852C9.05945 95.1027 8.0884 94.8142 7.69364 94.5197V29.8468L0 28.5932V22.6023L23.4688 19.6129V44.1976ZM32.7155 47.187C30.573 47.187 28.7249 47.5755 27.165 48.3463C25.605 49.1171 24.3393 49.9881 23.4622 50.9531V89.1991C23.9509 89.9699 24.8282 90.6467 26.1876 91.0353C27.5533 91.5178 29.2073 91.7122 30.9614 91.7122C33.2982 91.7122 35.3409 91.1294 37.0012 89.876C38.7553 88.6227 40.1147 86.9807 41.2863 84.8563C42.4515 82.7319 43.2346 80.219 43.8172 77.4178C44.3999 74.6166 44.6943 71.527 44.6943 68.3372C44.6943 65.1474 44.5003 62.0578 44.0117 59.3569C43.523 56.7499 42.8463 54.525 41.7749 52.6951C40.8039 50.859 39.5384 49.5054 37.9785 48.5403C36.6128 47.6693 34.7645 47.187 32.7222 47.187H32.7155Z" fill="#3D7FFC"/>
<path d="M88.5879 52.0771H88.7818C89.1696 51.0014 89.945 49.6361 91.0145 47.9753C92.0839 46.3146 93.441 44.6601 94.9982 43.0937C96.5555 41.5336 98.4006 40.1685 100.439 39.0927C102.478 38.017 104.711 37.432 107.144 37.432C108.213 37.432 108.989 37.4316 109.571 37.5323C110.152 37.6329 110.64 37.7275 111.028 37.8281V55.688C110.64 55.3924 109.671 55.1031 108.114 54.8075C106.556 54.5118 104.617 54.317 102.479 54.317C101.315 54.317 100.052 54.4172 98.8822 54.5116C97.7189 54.6122 96.5492 54.8074 95.4798 55.0968C94.4105 55.2918 93.535 55.5877 92.6658 55.877C91.7903 56.1726 91.2085 56.4619 90.7207 56.7576V89.5464L103.448 90.817V97.5484H67.7925V90.622L74.916 89.628V50.0076L67.2423 48.183V39.9481L88.6815 37.1613L88.5879 52.0771Z" fill="#3D7FFC"/>
<path d="M143.665 89.5469L151.165 90.623V97.5484H119.889V90.623L127.485 89.6477V49.4839L120.483 47.7984V40.0927L143.665 37.1613V89.5469Z" fill="#3D7FFC"/>
<path d="M246.344 45.7616C247.218 44.8951 247.783 44.8326 249.241 43.8725C250.699 42.9123 252.157 42.0456 253.904 41.2787C255.651 40.5119 257.599 39.8387 259.635 39.2651C261.678 38.785 263.909 38.498 266.146 38.498C269.451 38.498 272.267 38.9781 274.404 39.8448C276.54 40.7114 278.287 42.1518 279.651 44.0721C281.014 45.9924 281.788 48.3928 282.372 51.2732C282.856 54.1537 283.151 57.608 283.151 61.5484V89.5867L290.341 90.6401V97.4546H261.678V90.8271L267.409 89.6739V61.4425C267.409 59.1357 267.315 57.1217 267.019 55.3947C266.825 53.6676 266.341 52.3208 265.656 51.1673C264.977 50.014 264.104 49.2472 262.935 48.7671C261.766 48.2871 260.213 48 258.366 48C257.297 48 256.229 48.0936 255.061 48.3866C253.892 48.6734 252.823 48.9605 251.856 49.2535C250.787 49.6401 249.813 50.0204 248.939 50.5005C248.066 50.9805 247.287 51.4605 246.608 51.9405V89.6799L253.603 90.7339V97.5484H224.449V97.4546H224.456V90.6401L230.772 89.5867V29.7258L223.098 28.4788V22.5247L246.344 19.6129V45.7616Z" fill="#3D7FFC"/>
<path d="M133.825 0C131.799 3.92378 138.879 9.62486 140.538 11.2772C141.684 9.39975 142.734 8.22548 143.684 7.75403C142.108 10.858 143.828 13.6804 144.254 16.4965C145.111 22.4167 141.82 27.7739 136.109 29.0444C131.968 29.8892 127.97 29.4699 125.111 26.0842C122.252 22.8425 121.827 19.0375 123.397 15.0887C124.398 12.6918 125.111 10.4386 123.685 7.76008L123.679 7.75403C125.537 8.4612 126.394 9.58761 127.251 11.1396C128.677 10.2948 129.39 9.02444 129.678 7.61643C129.965 6.20208 130.254 4.79368 130.679 3.38558C131.254 1.97131 132.111 0.844826 133.825 0Z" fill="#3D7FFC"/>
<path d="M389.897 62.3576L379.097 57.9516C375.716 56.5454 371.677 54.7642 371.677 50.0769C371.677 45.2958 375.903 42.6709 381.257 42.6709C386.798 42.6709 391.775 45.3895 395.908 49.1394L401.73 40.421C397.88 36.4836 391.212 32.64 382.008 32.64C368.39 32.64 359.562 40.421 359.562 51.6705C359.562 59.5453 364.258 64.5138 371.301 67.3262L381.444 71.3573C386.986 73.6072 390.367 75.2947 390.367 80.357C390.367 85.9818 386.234 88.8879 380.224 88.8879C374.119 88.8879 368.014 85.888 362.943 80.357L357.12 89.1691C361.346 94.044 368.954 99.2 380.036 99.2C393.748 99.2 402.576 91.2316 402.576 79.232C402.576 71.1698 399.007 66.1075 389.897 62.3576Z" fill="#9FC0FF"/>
<path d="M411.87 33.39V98.0751H432.626C443.896 98.0751 452.255 94.4189 457.232 90.0129C462.304 85.6068 467.563 78.0133 467.563 65.6388C467.563 53.358 462.304 45.952 457.232 41.5459C452.255 37.0461 443.896 33.39 432.626 33.39H411.87ZM433.096 87.7629H424.08V43.6084H433.096C440.139 43.6084 445.305 45.952 448.498 48.8582C451.597 51.858 454.978 57.1078 454.978 65.7325C454.978 74.4509 451.597 79.4195 448.498 82.4194C445.305 85.4193 440.139 87.7629 433.096 87.7629Z" fill="#9FC0FF"/>
<path d="M495.112 67.9824L513.989 98.0751H528.64L502.813 59.3578L526.95 33.39H512.393L489.195 58.9828V33.39H477.08V98.0751H489.195V74.2634L495.112 67.9824Z" fill="#9FC0FF"/>
</svg>
